<!DOCTYPE svg PUBLIC "-//W3C//DTD SVG 1.1//EN" "http://www.w3.org/Graphics/SVG/1.1/DTD/svg11.dtd">
<!-- Uploaded to: SVG Repo, www.svgrepo.com, Transformed by: SVG Repo Mixer Tools -->
<svg width="256px" height="256px" viewBox="0 0 366.34 366.34" id="Layer_1" data-name="Layer 1" xmlns="http://www.w3.org/2000/svg" fill="#000000" transform="rotate(0)" stroke="#000000" stroke-width="3.2970599999999997">
<g id="SVGRepo_bgCarrier" stroke-width="0" transform="translate(0,0), scale(1)">
<path transform="translate(0, 0), scale(11.448125)" d="M16,31.83775037448657C19.07833363677297,30.85542332088159,18.373950750072357,25.659749526546875,20.981692209803676,23.75166438726967C23.31829313516191,22.04197285114754,27.376041074351967,24.22545936676104,29.327121055655482,22.086292253226134C31.183947672647648,20.050464674311513,30.43429741729976,16.702873444512917,29.870750450587856,14.005687163784472C29.330194629589556,11.418538566620848,28.25172835614427,8.830440236279124,26.20743711944345,7.155205387379098C24.28552713305687,5.580258272290052,21.644751009950678,5.336928688418636,19.16224305544025,5.230389179820985C17.096018226380334,5.14171491090662,15.126580370341152,5.752412899027363,13.239521408141886,6.5986732864818425C11.555590340505494,7.353840022810947,10.465379911324774,8.87911314033947,8.888383622449464,9.83774933049843C6.378469790097272,11.363494350221568,2.392110827657389,11.170317304623554,1.2602202919001204,13.880739619707672C0.20148062450479487,16.415995043902164,2.7685632122889396,19.0259330072559,4.032635342608517,21.46531231326251C5.235079410170071,23.785763104546472,6.472947337305737,26.039602850354736,8.447879087437258,27.75132952033064C10.655513928993047,29.6647462425072,13.216831323438505,32.725887336988905,16,31.83775037448657" fill="#7ed0ec" strokewidth="0"/>
</g>
<g id="SVGRepo_tracerCarrier" stroke-linecap="round" stroke-linejoin="round" stroke="#CCCCCC" stroke-width="2.1980399999999998"/>
<g id="SVGRepo_iconCarrier">
<defs>
<style>.cls-1{fill:#00214e;}.cls-2{fill:#845161;}.cls-3{fill:#69303a;}.cls-4{fill:none;stroke:#00214e;stroke-miterlimit:10;}.cls-5{fill:#ff2609;}</style>
</defs>
<title>Artboards_Diversity_Avatars_by_Netguru</title>
<path class="cls-1" d="M122.06,169.38c-.59-1.4-1.16-2.82-1.69-4.25-13-34.59-7.74-76.87,22.21-100.87,8.26-6.62,15.89-12.24,25.74-16.5,3.06-1.32,6.51-2.58,9.65-1.45s4.89,5.87,2.22,7.86a65.82,65.82,0,0,1,20.5-9.67c4.38-1.19,9.2-1.9,13.36-.07s7.06,7.06,5,11.1c6-2.19,12.45-4.07,18.68-2.72,9.39,2,16.72,16,20.75,24a84.12,84.12,0,0,1,8.62,37c.11,10.64-2.82,21.06-6,31.2-4.46,14.21-9.72,28.63-19.62,39.76C231.38,196,220,199.13,205.59,200c-8.4.51-16.78,1.34-25.16,2.08-4.25.38-8.51.76-12.77,1-3.8.23-7.27,2.16-11.1,2.67a15,15,0,0,1-9.55-1.55,22.34,22.34,0,0,1-5.57-5.28,167.81,167.81,0,0,1-11.29-14.4A91.67,91.67,0,0,1,122.06,169.38Z"/>
<circle class="cls-2" cx="134.82" cy="161.53" r="17"/>
<circle class="cls-3" cx="140.68" cy="160.53" r="16"/>
<path class="cls-2" d="M296.41,284.71a184.56,184.56,0,0,1-226.48-1l48.66-22.81a46.83,46.83,0,0,0,6.65-3.82c.64-.44,1.28-.9,1.89-1.38a46.35,46.35,0,0,0,12.78-15.09c4-7.55,5.32-15.89,5.38-24.39,0-1.74,0-3.49-.06-5.23-.09-4-.27-8-.31-11.94q-.06-4.75-.1-9.51l2,1,5.2,2.69,2.41.41,27.88,4.74,31.12,5.3.94,32,.36,12.21.1,3.33v.33l12.1,4.92Z"/>
<path class="cls-3" d="M214.74,248.08l-1.54.16a51.49,51.49,0,0,1-40.67-14.65l-27.38-31.91c-.09-2.9-.2-.6-.23-3.51q-.06-4.75-.1-9.51l2,1,5.2,2.69,2.41.41,27.88,4.74,31.12,5.3.94,32Z"/>
<path class="cls-2" d="M155.85,128.81a80.43,80.43,0,0,0-1,16c-.9-.19-17.43-4.6-17.31-3.22.87,10.36,6.38,50.77,7.43,61l36.42,26.86a51.47,51.47,0,0,0,42.29,8.94c5.87-1.38,9.59-2.29,12.24-7,5.12-9,17.69-39.79,18.51-61.51.23-6.17.08-15.57-3.72-20.82-1.85-2.55-2.8-2.61-2.13-6.21.69-3.76,1.68-7.47,2.51-11.21,2-9.06,2.75-17.46.75-26.74-1.37-6.33-7.47-17.72-7.47-17.72-.81,4.61-8,11.55-14.87,12.94-15.83,3.2-28.73-3.86-44-4.63-6.43-.33-13.21,1.18-18,5.46-3.68,3.27-5.91,7.86-7.63,12.48A80.56,80.56,0,0,0,155.85,128.81Z"/>
<path class="cls-4" d="M220.19,144.81a56.66,56.66,0,0,0,2,11.49c1,3.31,2.51,5.36,4.52,8.21a19.71,19.71,0,0,1,1.79,3c2.64,5.94-.87,12.53-7.55,12.53h-4.13"/>
<path class="cls-4" d="M191.16,189.84a29.76,29.76,0,0,0,18.54,9.69"/>
<path class="cls-4" d="M172.49,133.7a80.34,80.34,0,0,1,28.13-.8"/>
<path class="cls-4" d="M231.54,133.81A55.35,55.35,0,0,1,249,132.59"/>
<path class="cls-5" d="M296.41,284.71a184.56,184.56,0,0,1-226.48-1l48.66-22.81a46.83,46.83,0,0,0,6.65-3.82c.64-.44,1.28-.9,1.89-1.38,23.55,16.76,55.69,27.33,83.49,14.82,6.62-3,12.7-7.84,16.3-14.06Z"/>
<path class="cls-4" d="M203.49,173a3.4,3.4,0,0,0,2.11,6.38"/>
<path class="cls-1" d="M188,141.33c6.1,0,6.1,9.38,0,9.43h-.28c-6.1,0-6.1-9.38,0-9.43H188Z"/>
<path class="cls-1" d="M238.25,141.33c5.66,0,5.66,8.71,0,8.75H238c-5.66,0-5.66-8.7,0-8.75h.26Z"/>
</g>
</svg>