<svg width="154" height="46" viewBox="0 0 154 46" fill="none" xmlns="http://www.w3.org/2000/svg">
<g clip-path="url(#clip0_108_2)">
<g filter="url(#filter0_d_108_2)">
<path d="M8.324 33V12.644H20.532V15.528H12.328V33H8.324ZM13.392 23.732C13.5133 23.3213 13.686 22.8967 13.91 22.458C14.1433 22.0193 14.4467 21.6507 14.82 21.352C15.1933 21.0533 15.6507 20.904 16.192 20.904H19.58V23.732H13.392ZM23.1916 33L30.4996 12.644H34.4196L41.7276 33H37.5836L32.5436 17.852L32.3196 16.816L32.0676 17.908L29.6876 25.16L29.3516 25.72L29.7716 25.664H31.8996C32.4409 25.664 32.8936 25.818 33.2576 26.126C33.6309 26.434 33.9296 26.812 34.1536 27.26C34.3869 27.708 34.5689 28.1373 34.6996 28.548H28.6236L27.1396 33H23.1916ZM53.0866 33.308C52.5733 33.308 52.1066 33.2753 51.6866 33.21C51.2666 33.154 50.6506 33.028 49.8386 32.832C49.9879 32.5053 50.1839 32.16 50.4266 31.796C50.6693 31.432 50.9726 31.124 51.3366 30.872C51.7006 30.6107 52.1346 30.48 52.6386 30.48C52.6573 30.48 52.6759 30.48 52.6946 30.48C52.7226 30.48 52.7413 30.48 52.7506 30.48C53.3946 30.4613 53.9639 30.326 54.4586 30.074C54.9626 29.8127 55.3593 29.444 55.6486 28.968C55.9379 28.492 56.0826 27.9133 56.0826 27.232C56.0826 26.4947 55.8726 25.86 55.4526 25.328C55.0419 24.7867 54.4726 24.3713 53.7446 24.082C53.0166 23.7927 52.1906 23.648 51.2666 23.648H48.7466V33H44.8266V12.952C45.8253 12.784 46.6793 12.6533 47.3886 12.56C48.0979 12.4573 48.7513 12.3873 49.3486 12.35C49.9553 12.3033 50.5946 12.28 51.2666 12.28C52.9466 12.28 54.3606 12.5227 55.5086 13.008C56.6566 13.484 57.5246 14.1513 58.1126 15.01C58.7006 15.8687 58.9946 16.872 58.9946 18.02C58.9946 18.7013 58.7799 19.3827 58.3506 20.064C57.9213 20.7453 57.3613 21.3053 56.6706 21.744L55.8586 22.136L56.6426 22.332C57.3239 22.5747 57.9306 22.9573 58.4626 23.48C59.0039 24.0027 59.4286 24.5953 59.7366 25.258C60.0446 25.9207 60.1986 26.588 60.1986 27.26C60.1986 27.9787 60.0353 28.6973 59.7086 29.416C59.3819 30.1253 58.9106 30.774 58.2946 31.362C57.6786 31.95 56.9319 32.4213 56.0546 32.776C55.1773 33.1307 54.1879 33.308 53.0866 33.308ZM48.7466 21.016H51.2666C51.9106 21.016 52.5126 20.89 53.0726 20.638C53.6326 20.386 54.0853 20.0407 54.4306 19.602C54.7853 19.154 54.9626 18.636 54.9626 18.048C54.9626 17.6093 54.8366 17.166 54.5846 16.718C54.3419 16.2607 53.9499 15.878 53.4086 15.57C52.8673 15.262 52.1533 15.108 51.2666 15.108C50.7626 15.108 50.3426 15.122 50.0066 15.15C49.6706 15.178 49.2506 15.2293 48.7466 15.304V21.016ZM72.8478 33.392C70.6918 33.392 68.8578 32.93 67.3458 32.006C65.8431 31.0727 64.6951 29.808 63.9018 28.212C63.1085 26.616 62.7118 24.8147 62.7118 22.808C62.7118 21.3427 62.9358 19.9707 63.3838 18.692C63.8411 17.4133 64.5038 16.2887 65.3718 15.318C66.2398 14.3473 67.2991 13.5913 68.5498 13.05C69.8098 12.4993 71.2425 12.224 72.8478 12.224C74.6771 12.224 76.2311 12.5367 77.5098 13.162C78.7978 13.7873 79.8431 14.618 80.6458 15.654C81.4485 16.69 82.0318 17.8333 82.3958 19.084C82.7691 20.3253 82.9558 21.5667 82.9558 22.808C82.9558 24.18 82.7318 25.5007 82.2838 26.77C81.8451 28.03 81.1965 29.1593 80.3378 30.158C79.4791 31.1567 78.4198 31.9453 77.1598 32.524C75.9091 33.1027 74.4718 33.392 72.8478 33.392ZM72.8478 30.508C73.8745 30.508 74.8358 30.2093 75.7318 29.612C76.6278 29.0053 77.3511 28.128 77.9018 26.98C78.4525 25.832 78.7278 24.4413 78.7278 22.808C78.7278 21.3427 78.4945 20.0313 78.0278 18.874C77.5611 17.7073 76.8891 16.788 76.0118 16.116C75.1345 15.444 74.0798 15.108 72.8478 15.108C71.5598 15.108 70.4771 15.4627 69.5998 16.172C68.7318 16.8813 68.0738 17.8193 67.6258 18.986C67.1871 20.1527 66.9678 21.4267 66.9678 22.808C66.9678 23.7693 67.0938 24.712 67.3458 25.636C67.5978 26.5507 67.9665 27.3767 68.4518 28.114C68.9465 28.842 69.5625 29.4253 70.2998 29.864C71.0371 30.2933 71.8865 30.508 72.8478 30.508ZM91.3296 33.364C90.5362 33.364 89.6076 33.252 88.5436 33.028C87.4796 32.8133 86.3082 32.412 85.0296 31.824L86.0936 29.22C87.1016 29.696 88.0489 30.0273 88.9356 30.214C89.8222 30.3913 90.6202 30.48 91.3296 30.48C92.3282 30.48 93.1496 30.2187 93.7936 29.696C94.4469 29.1733 94.7736 28.548 94.7736 27.82C94.7736 27.1387 94.5449 26.5553 94.0876 26.07C93.6302 25.5753 93.0422 25.1273 92.3236 24.726C91.6049 24.3153 90.8396 23.9 90.0276 23.48C89.2156 23.06 88.4502 22.5887 87.7316 22.066C87.0129 21.5433 86.4249 20.9227 85.9676 20.204C85.5102 19.4853 85.2816 18.6173 85.2816 17.6C85.2816 16.3773 85.5616 15.374 86.1216 14.59C86.6909 13.806 87.4422 13.2273 88.3756 12.854C89.3089 12.4713 90.3309 12.28 91.4416 12.28C92.3002 12.28 93.1356 12.3407 93.9476 12.462C94.7596 12.574 95.7536 12.8213 96.9296 13.204L95.8936 15.752C95.0722 15.5093 94.3209 15.3367 93.6396 15.234C92.9582 15.1313 92.3096 15.08 91.6936 15.08C90.8536 15.08 90.1816 15.2853 89.6776 15.696C89.1736 16.1067 88.9216 16.6293 88.9216 17.264C88.9216 17.8987 89.1502 18.454 89.6076 18.93C90.0742 19.3967 90.6669 19.8307 91.3856 20.232C92.1136 20.6333 92.8836 21.0533 93.6956 21.492C94.5076 21.9307 95.2729 22.4253 95.9916 22.976C96.7196 23.5267 97.3122 24.1893 97.7696 24.964C98.2362 25.7293 98.4696 26.6533 98.4696 27.736C98.4696 28.94 98.1709 29.962 97.5736 30.802C96.9762 31.6327 96.1409 32.2673 95.0676 32.706C93.9942 33.1447 92.7482 33.364 91.3296 33.364ZM114.91 33V23.76H107.154C107.275 23.3493 107.448 22.92 107.672 22.472C107.905 22.024 108.208 21.646 108.582 21.338C108.955 21.03 109.412 20.876 109.954 20.876H114.91V12.644H118.858V33H114.91ZM102.086 33V12.644H106.09V33H102.086ZM132.485 33.392C130.329 33.392 128.495 32.93 126.983 32.006C125.48 31.0727 124.332 29.808 123.539 28.212C122.745 26.616 122.349 24.8147 122.349 22.808C122.349 21.3427 122.573 19.9707 123.021 18.692C123.478 17.4133 124.141 16.2887 125.009 15.318C125.877 14.3473 126.936 13.5913 128.187 13.05C129.447 12.4993 130.879 12.224 132.485 12.224C134.314 12.224 135.868 12.5367 137.147 13.162C138.435 13.7873 139.48 14.618 140.283 15.654C141.085 16.69 141.669 17.8333 142.033 19.084C142.406 20.3253 142.593 21.5667 142.593 22.808C142.593 24.18 142.369 25.5007 141.921 26.77C141.482 28.03 140.833 29.1593 139.975 30.158C139.116 31.1567 138.057 31.9453 136.797 32.524C135.546 33.1027 134.109 33.392 132.485 33.392ZM132.485 30.508C133.511 30.508 134.473 30.2093 135.369 29.612C136.265 29.0053 136.988 28.128 137.539 26.98C138.089 25.832 138.365 24.4413 138.365 22.808C138.365 21.3427 138.131 20.0313 137.665 18.874C137.198 17.7073 136.526 16.788 135.649 16.116C134.771 15.444 133.717 15.108 132.485 15.108C131.197 15.108 130.114 15.4627 129.237 16.172C128.369 16.8813 127.711 17.8193 127.263 18.986C126.824 20.1527 126.605 21.4267 126.605 22.808C126.605 23.7693 126.731 24.712 126.983 25.636C127.235 26.5507 127.603 27.3767 128.089 28.114C128.583 28.842 129.199 29.4253 129.937 29.864C130.674 30.2933 131.523 30.508 132.485 30.508Z" fill="black"/>
</g>
<rect x="1" y="1" width="152" height="44" stroke="black" stroke-width="2"/>
</g>
<defs>
<filter id="filter0_d_108_2" x="4.324" y="12.224" width="142.269" height="29.168" filterUnits="userSpaceOnUse" color-interpolation-filters="sRGB">
<feFlood flood-opacity="0" result="BackgroundImageFix"/>
<feColorMatrix in="SourceAlpha" type="matrix" values="0 0 0 0 0 0 0 0 0 0 0 0 0 0 0 0 0 0 127 0" result="hardAlpha"/>
<feOffset dy="4"/>
<feGaussianBlur stdDeviation="2"/>
<feComposite in2="hardAlpha" operator="out"/>
<feColorMatrix type="matrix" values="0 0 0 0 0 0 0 0 0 0 0 0 0 0 0 0 0 0 0.25 0"/>
<feBlend mode="normal" in2="BackgroundImageFix" result="effect1_dropShadow_108_2"/>
<feBlend mode="normal" in="SourceGraphic" in2="effect1_dropShadow_108_2" result="shape"/>
</filter>
<clipPath id="clip0_108_2">
<rect width="154" height="46" fill="white"/>
</clipPath>
</defs>
</svg>
